<?xml version="1.0" encoding="iso-8859-1"?>
<!-- Generator: Adobe Illustrator 19.0.0, SVG Export Plug-In . SVG Version: 6.00 Build 0)  -->
<svg xmlns="http://www.w3.org/2000/svg" xmlns:xlink="http://www.w3.org/1999/xlink" version="1.1" id="Layer_1" x="0px" y="0px" viewBox="0 0 512.001 512.001" style="enable-background:new 0 0 512.001 512.001;" xml:space="preserve" width="512px" height="512px">
<g>
	<g>
		<path d="M416.305,411.895h-5.912V263.72c0-85.131-69.258-154.389-154.389-154.389S101.615,178.589,101.615,263.72v148.175h-5.912    c-29.163,0-52.89,23.726-52.89,52.89v47.216h426.382v-47.217C469.194,435.621,445.469,411.895,416.305,411.895z M132.032,263.72    c0-68.358,55.614-123.973,123.973-123.973s123.973,55.615,123.973,123.973v148.175H132.032V263.72z M438.779,481.583    L438.779,481.583H73.229v-16.799c0-12.392,10.081-22.474,22.474-22.474h5.912h308.778h5.912c12.392,0,22.474,10.081,22.474,22.474    V481.583z" fill="#D80027"/>
	</g>
</g>
<g>
	<g>
		<path d="M256.004,154.956v30.417c43.201,0,78.348,35.147,78.348,78.348h30.417C364.768,203.748,315.976,154.956,256.004,154.956z" fill="#D80027"/>
	</g>
</g>
<g>
	<g>
		<rect x="240.801" width="30.417" height="85.673" fill="#D80027"/>
	</g>
</g>
<g>
	<g>
		
			<rect x="363.901" y="90.063" transform="matrix(0.7071 -0.7071 0.7071 0.7071 44.6932 318.4402)" width="85.672" height="30.416" fill="#D80027"/>
	</g>
</g>
<g>
	<g>
		<rect x="90.067" y="62.442" transform="matrix(0.7071 -0.7071 0.7071 0.7071 -43.6084 105.276)" width="30.416" height="85.672" fill="#D80027"/>
	</g>
</g>
<g>
	<g>
		<rect x="159.226" y="16.231" transform="matrix(0.9239 -0.3827 0.3827 0.9239 -9.3265 71.2513)" width="30.417" height="85.675" fill="#D80027"/>
	</g>
</g>
<g>
	<g>
		
			<rect x="294.745" y="43.857" transform="matrix(0.3827 -0.9239 0.9239 0.3827 153.8232 348.3466)" width="85.675" height="30.417" fill="#D80027"/>
	</g>
</g>
<g>
	<g>
		
			<rect x="410.105" y="159.22" transform="matrix(0.9239 -0.3827 0.3827 0.9239 -32.2724 186.6151)" width="85.675" height="30.417" fill="#D80027"/>
	</g>
</g>
<g>
	<g>
		
			<rect x="43.849" y="131.596" transform="matrix(0.3827 -0.9239 0.9239 0.3827 -124.6983 162.242)" width="30.417" height="85.675" fill="#D80027"/>
	</g>
</g>
<g>
</g>
<g>
</g>
<g>
</g>
<g>
</g>
<g>
</g>
<g>
</g>
<g>
</g>
<g>
</g>
<g>
</g>
<g>
</g>
<g>
</g>
<g>
</g>
<g>
</g>
<g>
</g>
<g>
</g>
</svg>
