<svg width="100" height="80" xmlns="http://www.w3.org/2000/svg">

 <g>
  <title>background</title>
  <rect fill="none" id="canvas_background" height="82" width="102" y="-1" x="-1"/>
 </g>
 <g>
  <title>Layer 1</title>
  <path stroke="null" id="svg_1" fill="#a0a0a0" d="m89.999908,0.749999l-79.999918,0c-5.419994,0 -9.99999,3.872551 -9.99999,8.455351l0,46.504432c0,4.5828 4.579995,8.455351 9.99999,8.455351l47.596618,0l16.17165,15.040661c0.321666,0.298756 0.771666,0.460817 1.231665,0.460817c0.201666,0 0.405,-0.031003 0.601666,-0.094418c0.641666,-0.209975 1.064999,-0.732797 1.064999,-1.314807l0,-14.092252l13.33332,0c5.419994,0 9.99999,-3.872551 9.99999,-8.455351l0,-46.504432c0,-4.5828 -4.579995,-8.455351 -9.99999,-8.455351zm6.66666,54.959783c0,3.0552 -3.05333,5.636901 -6.66666,5.636901l-14.999985,0c-0.919999,0 -1.666665,0.631333 -1.666665,1.409225l0,11.857221l-13.738319,-12.778854l-8.329991,-8.189008c-0.599999,-0.589056 -1.651665,-0.656699 -2.351664,-0.149378c-0.696666,0.507321 -0.776666,1.397951 -0.176666,1.987008l5.964994,5.863786l-44.701621,0c-3.61333,0 -6.66666,-2.581701 -6.66666,-5.636901l0,-46.504432c0,-3.0552 3.05333,-5.636901 6.66666,-5.636901l79.999918,0c3.61333,0 6.66666,2.581701 6.66666,5.636901l0,46.504432z"/>
  <g id="svg_2"/>
  <g id="svg_3"/>
  <g id="svg_4"/>
  <g id="svg_5"/>
  <g id="svg_6"/>
  <g id="svg_7"/>
  <g id="svg_8"/>
  <g id="svg_9"/>
  <g id="svg_10"/>
  <g id="svg_11"/>
  <g id="svg_12"/>
  <g id="svg_13"/>
  <g id="svg_14"/>
  <g id="svg_15"/>
  <g id="svg_16"/>
 </g>
</svg>