<?xml version="1.0" encoding="iso-8859-1"?>
<!-- Generator: Adobe Illustrator 19.0.0, SVG Export Plug-In . SVG Version: 6.00 Build 0)  -->
<svg version="1.1" id="Capa_1" xmlns="http://www.w3.org/2000/svg" xmlns:xlink="http://www.w3.org/1999/xlink" x="0px" y="0px"
	 viewBox="0 0 512 512" style="enable-background:new 0 0 512 512;" xml:space="preserve">
<rect x="10.01" y="94.008" style="fill:#C9F3FF;" width="491.988" height="387.99"/>
<g>
	<path style="fill:#FE8F8D;" d="M95.011,481.994L95.011,481.994c0-58.242-23.246-114.075-64.579-155.108l-1.33-1.321l0,0
		c68.396-49.42,108.908-128.672,108.908-213.055V94.004L10,94.382v387.612H95.011z"/>
	<path style="fill:#FE8F8D;" d="M417.752,481.994L417.752,481.994c0-58.242,23.246-114.075,64.579-155.108l1.33-1.321l0,0
		c-68.396-49.42-108.908-128.672-108.908-213.055V94.004l128.01,0.378v387.612H417.752z"/>
</g>
<rect x="10" y="30.01" style="fill:#FFC66C;" width="491.988" height="63.998"/>
<path d="M254.486,40.005c2.63,0,5.21-1.07,7.07-2.93c1.86-1.86,2.93-4.44,2.93-7.07s-1.069-5.21-2.93-7.07
	c-1.86-1.86-4.44-2.93-7.07-2.93c-2.63,0-5.21,1.07-7.069,2.93c-1.86,1.86-2.931,4.44-2.931,7.07s1.07,5.21,2.931,7.07
	C249.276,38.936,251.856,40.005,254.486,40.005z"/>
<path d="M460.322,264.161c1.927,2.891,5.098,4.454,8.329,4.454c1.906,0,3.833-0.544,5.538-1.681
	c4.596-3.063,5.837-9.272,2.773-13.867c-0.012-0.018-0.089-0.132-0.109-0.163c-3.068-4.584-9.268-5.819-13.858-2.759
	c-4.596,3.063-5.837,9.272-2.773,13.867L460.322,264.161z"/>
<path d="M511.987,30.006c0-5.523-4.478-10-10-10H293.506c-5.522,0-10,4.477-10,10s4.478,10,10,10h198.482v43.999H19.999V40.005
	h193.508c5.522,0,10-4.477,10-10s-4.478-10-10-10H10c-5.522,0-10,4.477-10,10l0.013,451.989c0,5.523,4.478,10,10,10H502
	c5.522,0,10-4.477,10-10L511.987,30.006z M407.231,471.995H104.782c-1.158-26.811-6.964-52.955-17.331-77.851
	c-8.697-20.888-20.281-40.117-34.539-57.411c14.264,2.73,27.276,10.226,36.833,21.513c1.978,2.336,4.798,3.539,7.637,3.539
	c2.283,0,4.578-0.777,6.456-2.368c4.216-3.569,4.74-9.878,1.171-14.094c-12.721-15.027-30.105-24.953-49.141-28.401
	c58.123-51.451,92.141-126.053,92.141-204.411v-8.508h215.995v8.508c0,78.359,34.019,152.96,92.141,204.411
	c-19.036,3.448-36.42,13.376-49.141,28.401c-3.569,4.215-3.045,10.525,1.171,14.094c1.879,1.59,4.173,2.368,6.456,2.368
	c2.839,0,5.659-1.202,7.637-3.539c9.557-11.288,22.57-18.784,36.833-21.513c-14.258,17.294-25.842,36.521-34.539,57.411
	C414.194,419.04,408.388,445.184,407.231,471.995z M37.797,266.917c1.71,1.148,3.647,1.698,5.564,1.698
	c3.22,0,6.382-1.553,8.312-4.427c30.314-45.157,46.338-97.769,46.338-152.149v-8.035h29.999v8.508
	c0,79.865-38.14,155.524-102.184,203.055h-5.813V104.004h57.999v8.035c0,50.396-14.85,99.153-42.943,141.002
	C31.989,257.626,33.211,263.839,37.797,266.917z M492.001,104.004v211.562h-5.813c-64.044-47.531-102.184-123.19-102.184-203.055
	v-8.508h29.999v8.035c0,39.663,8.404,78.042,24.978,114.07c1.686,3.664,5.307,5.823,9.091,5.823c1.398,0,2.82-0.295,4.174-0.917
	c5.017-2.309,7.213-8.247,4.905-13.264c-15.36-33.388-23.147-68.955-23.147-105.711v-8.035L492.001,104.004L492.001,104.004z
	 M20.012,362.101c10.242,20.309,17.505,42.169,21.329,64.514c0.834,4.873,5.063,8.314,9.845,8.314c0.56,0,1.128-0.047,1.698-0.145
	c5.444-0.932,9.102-6.1,8.17-11.543c-4.69-27.4-14.136-54.129-27.619-78.524c30.741,35.255,49.033,80.514,51.327,127.278H20.013
	L20.012,362.101L20.012,362.101z M427.251,471.995c2.293-46.763,20.584-92.022,51.326-127.278
	c-13.484,24.395-22.929,51.123-27.619,78.524c-0.932,5.444,2.726,10.612,8.17,11.543c0.57,0.098,1.138,0.145,1.698,0.145
	c4.782,0,9.011-3.442,9.845-8.314c3.825-22.345,11.088-44.205,21.329-64.514v109.894H427.251z"/>
<g>
</g>
<g>
</g>
<g>
</g>
<g>
</g>
<g>
</g>
<g>
</g>
<g>
</g>
<g>
</g>
<g>
</g>
<g>
</g>
<g>
</g>
<g>
</g>
<g>
</g>
<g>
</g>
<g>
</g>
</svg>
