<?xml version="1.0" encoding="iso-8859-1"?>
<!-- Generator: Adobe Illustrator 19.0.0, SVG Export Plug-In . SVG Version: 6.00 Build 0)  -->
<svg xmlns="http://www.w3.org/2000/svg" xmlns:xlink="http://www.w3.org/1999/xlink" version="1.1" id="Capa_1" x="0px" y="0px" viewBox="0 0 512 512" style="enable-background:new 0 0 512 512;" xml:space="preserve" width="512px" height="512px">
<g>
	<g>
		<path d="M361.516,141.996c-17.559-17.56-46.1-17.559-63.675-0.015l-44.706,44.706l106.126,21.224l2.255-2.255    C379.058,188.1,379.058,159.538,361.516,141.996z" fill="#FFFFFF"/>
	</g>
</g>
<g>
	<g>
		<polygon points="227.63,212.193 210.694,229.129 316.819,250.354 333.756,233.417   " fill="#FFFFFF"/>
	</g>
</g>
<g>
	<g>
		<path d="M187.809,255.157l-2.619-0.524L13.157,426.665c-17.543,17.557-17.543,46.119,0,63.661    c17.595,17.595,46.137,17.522,63.675,0.015l152.377-152.377L187.809,255.157z" fill="#FFFFFF"/>
	</g>
</g>
<g>
	<g>
		<polygon points="225.096,262.614 251.582,315.59 291.314,275.859   " fill="#FFFFFF"/>
	</g>
</g>
<g>
	<g>
		<path d="M501.95,14.441c-51.394-18.04-102.17,5.086-145.314,68.658c-1.612-7.679-0.366-17.542,4.968-34.073    c2.515-7.847-1.757-16.36-9.775-18.919c-48.156-15.167-103.463,5.056-140.847,51.629c-32.473,40.461-43.109,90.704-31.125,135.786    l96.764-96.76c29.326-29.295,76.805-29.297,106.115,0.015c29.251,29.237,29.251,76.835,0.015,106.101L289.823,319.8    c11.586,2.414,23.321,3.931,35.085,3.931c33.487,0,66.533-9.687,92.735-28.342c28.562-20.326,61.975-60.29,59.03-135.22    c-0.659-16.794,5.39-86.815,32.311-122.543C515.068,29.563,511.561,17.801,501.95,14.441z" fill="#FFFFFF"/>
	</g>
</g>
<g>
	<g>
		<circle cx="196.285" cy="37.097" r="15.007" fill="#FFFFFF"/>
	</g>
</g>
<g>
	<g>
		<circle cx="136.259" cy="127.136" r="15.007" fill="#FFFFFF"/>
	</g>
</g>
<g>
	<g>
		<circle cx="466.402" cy="307.214" r="15.007" fill="#FFFFFF"/>
	</g>
</g>
<g>
</g>
<g>
</g>
<g>
</g>
<g>
</g>
<g>
</g>
<g>
</g>
<g>
</g>
<g>
</g>
<g>
</g>
<g>
</g>
<g>
</g>
<g>
</g>
<g>
</g>
<g>
</g>
<g>
</g>
</svg>
