<?xml version="1.0" encoding="iso-8859-1"?>
<!-- Generator: Adobe Illustrator 19.0.0, SVG Export Plug-In . SVG Version: 6.00 Build 0)  -->
<svg xmlns="http://www.w3.org/2000/svg" xmlns:xlink="http://www.w3.org/1999/xlink" version="1.1" id="Layer_1" x="0px" y="0px" viewBox="0 0 512 512" style="enable-background:new 0 0 512 512;" xml:space="preserve" width="512px" height="512px">
<g>
	<g>
		<path d="M502.147,140.609C508.39,130.452,512,118.51,512,105.739c0-36.824-29.959-66.783-66.783-66.783    s-66.783,29.959-66.783,66.783c0,12.771,3.61,24.713,9.853,34.869c-5.805,2.615-9.853,8.438-9.853,15.218v9.589    c-9.887-4.251-23.169-9.347-38.956-13.919v-20.561c0-9.22-7.475-16.696-16.696-16.696s-16.696,7.475-16.696,16.696v12.753    c-10.571-1.883-21.756-3.31-33.391-4.031V89.044c0-9.22-7.475-16.696-16.696-16.696c-9.22,0-16.696,7.475-16.696,16.696v50.613    c-11.636,0.721-22.821,2.147-33.391,4.031v-12.753c0-9.22-7.475-16.696-16.696-16.696s-16.696,7.475-16.696,16.696v20.561    c-15.787,4.571-29.069,9.668-38.956,13.919v-9.589c0-6.78-4.048-12.603-9.853-15.218c6.243-10.157,9.853-22.098,9.853-34.869    c0-36.824-29.959-66.783-66.783-66.783C29.959,38.957,0,68.915,0,105.739c0,12.771,3.61,24.713,9.853,34.869    C4.048,143.223,0,149.047,0,155.826v300.522c0,9.22,7.475,16.696,16.696,16.696H116.87c9.22,0,16.696-7.475,16.696-16.696v-16.696    h244.87v16.696c0,9.22,7.475,16.696,16.696,16.696h100.174c9.22,0,16.696-7.475,16.696-16.696V155.826    C512,149.047,507.952,143.223,502.147,140.609z M100.174,439.652H33.391v-267.13h66.783    C100.174,181.531,100.174,423.083,100.174,439.652z M66.783,139.13c-18.412,0-33.391-14.979-33.391-33.391    s14.979-33.391,33.391-33.391c18.412,0,33.391,14.979,33.391,33.391S85.195,139.13,66.783,139.13z M172.522,406.261h-38.956    V202.232c5.801-2.934,19.73-9.538,38.956-15.777V406.261z M239.304,406.261h-33.391V177.687    c10.474-2.103,21.683-3.736,33.391-4.565V406.261z M306.087,406.261h-33.391V173.128c11.694,0.834,22.905,2.478,33.391,4.592    V406.261z M378.435,406.261h-38.956V186.505c19.2,6.232,33.149,12.814,38.956,15.736V406.261z M478.609,439.652h-66.783    c0-16.501,0-258.146,0-267.13h66.783V439.652z M445.217,139.13c-18.412,0-33.391-14.979-33.391-33.391    s14.979-33.391,33.391-33.391c18.412,0,33.391,14.979,33.391,33.391S463.629,139.13,445.217,139.13z" fill="#e50f29"/>
	</g>
</g>
<g>
</g>
<g>
</g>
<g>
</g>
<g>
</g>
<g>
</g>
<g>
</g>
<g>
</g>
<g>
</g>
<g>
</g>
<g>
</g>
<g>
</g>
<g>
</g>
<g>
</g>
<g>
</g>
<g>
</g>
</svg>
