<?xml version="1.0" encoding="iso-8859-1"?>
<!-- Generator: Adobe Illustrator 19.0.0, SVG Export Plug-In . SVG Version: 6.00 Build 0)  -->
<svg version="1.1" id="Capa_1" xmlns="http://www.w3.org/2000/svg" xmlns:xlink="http://www.w3.org/1999/xlink" x="0px" y="0px"
	 viewBox="0 0 512 512" style="enable-background:new 0 0 512 512;" xml:space="preserve">
<path style="fill:#B8BFCC;" d="M197.249,269.44v26.571c0,11.905-9.694,21.599-21.609,21.599h-9.614
	c-11.915,0-21.609-9.694-21.609-21.599V269.44H197.249z"/>
<path style="fill:#98A1AF;" d="M197.249,269.44v26.571c0,11.905-9.694,21.599-21.609,21.599h-4.802v-48.17H197.249z"/>
<path style="fill:#656566;" d="M213.436,238.078v37.736c0,13.035-10.604,23.64-23.64,23.64H151.88
	c-13.045,0-23.65-10.604-23.65-23.64v-37.735c0-8.293,6.723-15.006,15.006-15.006h55.193
	C206.713,223.071,213.436,229.784,213.436,238.078z"/>
<path style="fill:#53565C;" d="M213.436,238.078v37.736c0,13.035-10.604,23.64-23.64,23.64h-18.958v-76.381h27.591
	C206.713,223.071,213.436,229.784,213.436,238.078z"/>
<path style="fill:#FFDE33;" d="M271.579,155.934c0,55.553-45.199,100.751-100.741,100.751c-55.553,0-100.751-45.199-100.751-100.751
	S115.285,55.193,170.838,55.193C226.381,55.193,271.579,100.381,271.579,155.934z"/>
<path style="fill:#FFBC33;" d="M271.579,155.934c0,55.553-45.199,100.751-100.741,100.751V55.193
	C226.381,55.193,271.579,100.381,271.579,155.934z"/>
<path style="fill:#FFDE33;" d="M185.844,15.006v14.596c0,8.283-6.723,15.006-15.006,15.006c-8.293,0-15.006-6.723-15.006-15.006
	V15.006C155.832,6.723,162.545,0,170.838,0C179.121,0,185.844,6.723,185.844,15.006z"/>
<path style="fill:#FFBC33;" d="M170.838,44.608V0c8.283,0,15.006,6.723,15.006,15.006v14.596
	C185.844,37.886,179.121,44.608,170.838,44.608z"/>
<path style="fill:#FFDE33;" d="M43.581,168.495h-14.59c-8.287,0-15.006-6.719-15.006-15.006s6.719-15.006,15.006-15.006h14.59
	c8.287,0,15.006,6.719,15.006,15.006S51.868,168.495,43.581,168.495z"/>
<path style="fill:#FFBC33;" d="M313.253,168.495h-14.59c-8.287,0-15.006-6.719-15.006-15.006s6.719-15.006,15.006-15.006h14.59
	c8.287,0,15.006,6.719,15.006,15.006C328.26,161.776,321.541,168.495,313.253,168.495z"/>
<path style="fill:#FFDE33;" d="M62.094,266.332c-3.841,0-7.681-1.466-10.611-4.396c-5.859-5.86-5.858-15.362,0.001-21.223
	l10.317-10.316c5.86-5.857,15.361-5.858,21.223,0.001c5.859,5.86,5.858,15.361-0.001,21.223l-10.317,10.316
	C69.776,264.867,65.934,266.332,62.094,266.332z"/>
<g>
	<path style="fill:#FFBC33;" d="M263.577,78.197c-3.841,0-7.681-1.466-10.61-4.396c-5.86-5.859-5.86-15.361,0-21.222l10.316-10.317
		c5.859-5.859,15.361-5.859,21.222,0s5.86,15.361,0,21.222l-10.317,10.317C271.258,76.731,267.418,78.197,263.577,78.197z"/>
	<path style="fill:#FFBC33;" d="M277.328,266.137c-3.465,0-6.946-1.192-9.779-3.63l-11.061-9.515
		c-6.283-5.404-6.994-14.879-1.59-21.162c5.403-6.283,14.878-6.996,21.162-1.59l11.061,9.515c6.283,5.404,6.994,14.879,1.59,21.162
		C285.743,264.366,281.546,266.137,277.328,266.137z"/>
</g>
<path style="fill:#FFDE33;" d="M80.473,78.197c-3.841,0-7.681-1.466-10.61-4.396L59.545,63.485c-5.86-5.859-5.86-15.361,0-21.222
	c5.859-5.859,15.361-5.859,21.222,0L91.084,52.58c5.86,5.859,5.86,15.361,0,21.222C88.154,76.731,84.314,78.197,80.473,78.197z"/>
<g>
	<path style="fill:#4BB9EC;" d="M450.863,271.791c-3.601,7.463-12.575,10.584-20.038,6.973c-10.074-4.872-15.316-7.313-20.548-7.323
		c-5.252-0.01-10.494,2.431-20.628,7.323l-0.55,0.27c-2.101,1.01-4.322,1.491-6.503,1.491c-5.582,0-10.945-3.131-13.536-8.503
		c-3.591-7.463-0.46-16.427,7.013-20.028l0.53-0.26c14.166-6.843,23.92-10.264,33.674-10.254c9.744,0.01,19.478,3.431,33.614,10.264
		C451.353,255.355,454.474,264.328,450.863,271.791z"/>
	<path style="fill:#4BB9EC;" d="M475.113,235.707c-2.381,5.802-7.983,9.324-13.896,9.324c-1.901,0-3.822-0.36-5.682-1.12
		l-6.233-2.551c-16.227-6.643-27.621-9.954-39.026-9.954c-11.395,0-22.789,3.311-39.016,9.954l-6.233,2.551
		c-7.673,3.141-16.437-0.54-19.578-8.203c-3.131-7.673,0.54-16.437,8.213-19.578l6.233-2.551
		c19.778-8.093,35.084-12.135,50.381-12.135c15.306,0,30.613,4.042,50.391,12.135l6.233,2.551
		C474.573,219.27,478.244,228.034,475.113,235.707z"/>
	<path style="fill:#4BB9EC;" d="M496.892,201.042c-2.371,5.802-7.983,9.324-13.896,9.324c-1.891,0-3.812-0.36-5.672-1.12
		l-8.443-3.451c-22.439-9.184-40.537-13.806-58.604-13.856c-18.277-0.05-36.525,4.562-59.224,13.856l-8.443,3.451
		c-7.673,3.141-16.427-0.54-19.568-8.203c-3.141-7.673,0.54-16.437,8.203-19.578l8.443-3.451
		c26.401-10.804,48.49-16.177,70.589-16.127c21.909,0.05,43.818,5.432,69.969,16.127l8.443,3.451
		C496.362,184.606,500.033,193.369,496.892,201.042z"/>
</g>
<g>
	<path style="fill:#0088FF;" d="M450.863,271.791c-3.601,7.463-12.575,10.584-20.038,6.973c-10.074-4.872-15.316-7.313-20.548-7.323
		v-29.962c9.744,0.01,19.478,3.431,33.614,10.264C451.353,255.355,454.474,264.328,450.863,271.791z"/>
	<path style="fill:#0088FF;" d="M475.113,235.707c-2.381,5.802-7.983,9.324-13.896,9.324c-1.901,0-3.822-0.36-5.682-1.12
		l-6.233-2.551c-16.227-6.643-27.621-9.954-39.026-9.954v-29.962c15.306,0,30.613,4.042,50.391,12.135l6.233,2.551
		C474.573,219.27,478.244,228.034,475.113,235.707z"/>
	<path style="fill:#0088FF;" d="M496.892,201.042c-2.371,5.802-7.983,9.324-13.896,9.324c-1.891,0-3.812-0.36-5.672-1.12
		l-8.443-3.451c-22.439-9.184-40.537-13.806-58.604-13.856v-30.052c21.909,0.05,43.818,5.432,69.969,16.127l8.443,3.451
		C496.362,184.606,500.033,193.369,496.892,201.042z"/>
</g>
<path style="fill:#87D92B;" d="M494.011,320.992v163.917c0,14.936-12.155,27.091-27.091,27.091H355.014
	c-14.936,0-27.091-12.155-27.091-27.091V320.992c0-14.936,12.155-27.091,27.091-27.091H466.92
	C481.856,293.901,494.011,306.056,494.011,320.992z"/>
<path style="fill:#00C37A;" d="M494.011,320.992v163.917c0,14.936-12.155,27.091-27.091,27.091h-56.633l-0.01-218.099h56.643
	C481.856,293.901,494.011,306.056,494.011,320.992z"/>
<path style="fill:#B8BFCC;" d="M494.011,409.108v75.801c0,14.936-12.155,27.091-27.091,27.091H355.014
	c-14.936,0-27.091-12.155-27.091-27.091v-75.801H494.011z"/>
<path style="fill:#98A1AF;" d="M494.011,409.108v75.801c0,14.936-12.155,27.091-27.091,27.091h-56.633V409.108H494.011z"/>
<path style="fill:#656566;" d="M425.292,460.799c0,0.49-0.02,0.98-0.07,1.471c-0.05,0.49-0.12,0.98-0.22,1.461
	c-0.1,0.48-0.22,0.96-0.36,1.421c-0.14,0.47-0.31,0.93-0.5,1.381c-0.18,0.46-0.4,0.9-0.62,1.331c-0.23,0.43-0.49,0.86-0.76,1.261
	c-0.27,0.41-0.56,0.81-0.87,1.19s-0.65,0.75-0.99,1.09c-0.35,0.35-0.72,0.68-1.1,1c-0.38,0.3-0.77,0.6-1.18,0.87
	s-0.83,0.52-1.261,0.75s-0.88,0.44-1.331,0.63c-0.45,0.18-0.92,0.35-1.381,0.49c-0.47,0.15-0.95,0.27-1.431,0.36
	c-0.48,0.1-0.97,0.17-1.451,0.22c-0.49,0.05-0.99,0.08-1.481,0.08c-0.49,0-0.98-0.03-1.471-0.08c-0.49-0.05-0.98-0.12-1.461-0.22
	c-0.48-0.09-0.96-0.21-1.421-0.36c-0.47-0.14-0.93-0.31-1.381-0.49c-0.46-0.19-0.9-0.4-1.331-0.63s-0.86-0.48-1.261-0.75
	c-0.41-0.27-0.81-0.57-1.19-0.87c-0.38-0.32-0.75-0.65-1.09-1c-0.35-0.34-0.68-0.71-1-1.09c-0.3-0.38-0.6-0.78-0.87-1.19
	c-0.27-0.4-0.52-0.83-0.75-1.261c-0.23-0.43-0.44-0.87-0.63-1.331c-0.19-0.45-0.35-0.91-0.5-1.381c-0.14-0.46-0.26-0.94-0.36-1.421
	c-0.09-0.48-0.17-0.97-0.21-1.461c-0.05-0.49-0.08-0.98-0.08-1.471s0.03-0.99,0.08-1.481c0.04-0.48,0.12-0.97,0.21-1.451
	c0.1-0.48,0.22-0.96,0.36-1.431c0.15-0.46,0.31-0.93,0.5-1.381c0.19-0.45,0.4-0.9,0.63-1.331s0.48-0.85,0.75-1.261
	c0.27-0.41,0.57-0.81,0.87-1.18c0.32-0.38,0.65-0.75,1-1.1c2.791-2.791,6.653-4.392,10.604-4.392s7.813,1.601,10.614,4.392
	c0.34,0.35,0.68,0.72,0.99,1.1c0.31,0.37,0.6,0.77,0.87,1.18s0.53,0.83,0.76,1.261c0.22,0.43,0.44,0.88,0.62,1.331
	c0.19,0.45,0.36,0.92,0.5,1.381c0.14,0.47,0.26,0.95,0.36,1.431c0.1,0.48,0.17,0.97,0.22,1.451
	C425.272,459.809,425.292,460.309,425.292,460.799z"/>
<path style="fill:#53565C;" d="M425.292,460.799c0,0.49-0.02,0.98-0.07,1.471c-0.05,0.49-0.12,0.98-0.22,1.461
	c-0.1,0.48-0.22,0.96-0.36,1.421c-0.14,0.47-0.31,0.93-0.5,1.381c-0.18,0.46-0.4,0.9-0.62,1.331c-0.23,0.43-0.49,0.86-0.76,1.261
	c-0.27,0.41-0.56,0.81-0.87,1.19s-0.65,0.75-0.99,1.09c-0.35,0.35-0.72,0.68-1.1,1c-0.38,0.3-0.77,0.6-1.18,0.87
	s-0.83,0.52-1.261,0.75s-0.88,0.44-1.331,0.63c-0.45,0.18-0.92,0.35-1.381,0.49c-0.47,0.15-0.95,0.27-1.431,0.36
	c-0.48,0.1-0.97,0.17-1.451,0.22c-0.49,0.05-0.99,0.08-1.481,0.08v-30.012c3.952,0,7.813,1.601,10.614,4.392
	c0.34,0.35,0.68,0.72,0.99,1.1c0.31,0.37,0.6,0.77,0.87,1.18s0.53,0.83,0.76,1.261c0.22,0.43,0.44,0.88,0.62,1.331
	c0.19,0.45,0.36,0.92,0.5,1.381c0.14,0.47,0.26,0.95,0.36,1.431c0.1,0.48,0.17,0.97,0.22,1.451
	C425.272,459.809,425.292,460.309,425.292,460.799z"/>
<path style="fill:#B8BFCC;" d="M308.014,453.486c-0.33-7.993-6.913-14.366-14.986-14.366H185.844v-47.319l4.412,3.121
	c2.631,1.861,5.662,2.751,8.654,2.751c4.702,0,9.344-2.201,12.265-6.343c4.782-6.763,3.181-16.127-3.591-20.909l-27.591-19.518
	c-2.701-1.911-5.822-2.791-8.894-2.741c-0.01,0-0.01,0-0.02,0c-0.08-0.01-0.16-0.01-0.24-0.01c-0.176,0-0.346,0.02-0.52,0.026
	c-0.214,0.007-0.427,0.016-0.641,0.032c-0.232,0.018-0.463,0.039-0.692,0.067c-0.244,0.03-0.487,0.069-0.73,0.111
	c-0.19,0.033-0.382,0.06-0.569,0.1c-0.421,0.089-0.84,0.196-1.256,0.322c-0.096,0.03-0.189,0.066-0.284,0.098
	c-0.342,0.112-0.682,0.235-1.018,0.372c-0.117,0.048-0.23,0.1-0.345,0.151c-0.31,0.136-0.617,0.284-0.921,0.443
	c-0.108,0.057-0.215,0.114-0.322,0.173c-0.308,0.172-0.612,0.357-0.912,0.554c-0.085,0.056-0.173,0.109-0.257,0.167
	c-0.068,0.046-0.138,0.086-0.205,0.133l-27.591,19.518c-6.763,4.782-8.373,14.146-3.581,20.909
	c2.921,4.142,7.553,6.343,12.265,6.343c2.991,0,6.012-0.89,8.644-2.751l3.932-2.781v61.985c0,8.283,6.713,15.006,15.006,15.006
	h122.19c8.293,0,15.006-6.723,15.006-15.006C308.034,453.906,308.034,453.696,308.014,453.486z"/>
<path style="fill:#98A1AF;" d="M293.028,439.12H185.844v-47.319l4.412,3.121c2.631,1.861,5.662,2.751,8.654,2.751
	c4.702,0,9.344-2.201,12.265-6.343c4.782-6.763,3.181-16.127-3.591-20.909l-27.591-19.518c-2.701-1.911-5.822-2.791-8.894-2.741
	c-0.01,0-0.01,0-0.02,0v33.194v72.13h136.936C307.684,445.493,301.101,439.12,293.028,439.12z"/>
<g>
</g>
<g>
</g>
<g>
</g>
<g>
</g>
<g>
</g>
<g>
</g>
<g>
</g>
<g>
</g>
<g>
</g>
<g>
</g>
<g>
</g>
<g>
</g>
<g>
</g>
<g>
</g>
<g>
</g>
</svg>
