<?xml version="1.0" encoding="iso-8859-1"?>
<!-- Generator: Adobe Illustrator 19.0.0, SVG Export Plug-In . SVG Version: 6.00 Build 0)  -->
<svg version="1.1" id="Capa_1" xmlns="http://www.w3.org/2000/svg" xmlns:xlink="http://www.w3.org/1999/xlink" x="0px" y="0px"
	 viewBox="0 0 512 512" style="enable-background:new 0 0 512 512;" xml:space="preserve">
<rect x="64.4" y="147.25" style="fill:#E57500;" width="30" height="90.91"/>
<rect x="79.4" y="147.25" style="fill:#BF6100;" width="15" height="90.91"/>
<rect x="41.89" y="223.16" style="fill:#C7C5CC;" width="77.67" height="60.77"/>
<rect x="79.4" y="223.16" style="fill:#ADACB2;" width="40.16" height="60.77"/>
<path style="fill:#00C700;" d="M161.46,347.445c0,44.51-36.22,80.72-80.73,80.72c-0.44,0-0.89,0-1.33-0.02
	c-43.91-0.7-79.4-36.63-79.4-80.7c0-44.08,35.49-80.01,79.4-80.71c0.44-0.02,0.89-0.02,1.33-0.02
	C125.24,266.715,161.46,302.925,161.46,347.445z"/>
<path style="fill:#00AC00;" d="M161.46,347.445c0,44.51-36.22,80.72-80.73,80.72c-0.44,0-0.89,0-1.33-0.02v-161.41
	c0.44-0.02,0.89-0.02,1.33-0.02C125.24,266.715,161.46,302.925,161.46,347.445z"/>
<rect x="65.73" y="265.05" style="fill:#C7C5CC;" width="30" height="47.94"/>
<rect x="79.4" y="265.05" style="fill:#ADACB2;" width="16.33" height="47.94"/>
<rect x="241" y="168.04" style="fill:#E57500;" width="30" height="70.12"/>
<rect x="256" y="168.04" style="fill:#BF6100;" width="15" height="70.12"/>
<rect x="218.49" y="223.16" style="fill:#C7C5CC;" width="77.67" height="60.77"/>
<rect x="256" y="223.16" style="fill:#ADACB2;" width="40.16" height="60.77"/>
<path style="fill:#FFA920;" d="M338.063,347.445c0,44.51-36.22,80.72-80.73,80.72c-0.44,0-0.89,0-1.33-0.02
	c-43.91-0.7-79.4-36.63-79.4-80.7c0-44.08,35.49-80.01,79.4-80.71c0.44-0.02,0.89-0.02,1.33-0.02
	C301.843,266.715,338.063,302.925,338.063,347.445z"/>
<path style="fill:#FF8700;" d="M338.063,347.445c0,44.51-36.22,80.72-80.73,80.72c-0.44,0-0.89,0-1.33-0.02v-161.41
	c0.44-0.02,0.89-0.02,1.33-0.02C301.843,266.715,338.063,302.925,338.063,347.445z"/>
<rect x="242.33" y="265.05" style="fill:#C7C5CC;" width="30" height="47.94"/>
<rect x="256" y="265.05" style="fill:#ADACB2;" width="16.33" height="47.94"/>
<rect x="414.86" y="147.25" style="fill:#E57500;" width="30" height="90.91"/>
<rect x="429.86" y="147.25" style="fill:#BF6100;" width="15" height="90.91"/>
<rect x="392.35" y="223.16" style="fill:#C7C5CC;" width="77.67" height="60.77"/>
<rect x="429.86" y="223.16" style="fill:#ADACB2;" width="40.16" height="60.77"/>
<path style="fill:#FF3B62;" d="M511.917,347.445c0,44.51-36.22,80.72-80.73,80.72c-0.44,0-0.89,0-1.33-0.02
	c-43.91-0.7-79.4-36.63-79.4-80.7c0-44.08,35.49-80.01,79.4-80.71c0.44-0.02,0.89-0.02,1.33-0.02
	C475.697,266.715,511.917,302.925,511.917,347.445z"/>
<path style="fill:#E60020;" d="M511.917,347.445c0,44.51-36.22,80.72-80.73,80.72c-0.44,0-0.89,0-1.33-0.02v-161.41
	c0.44-0.02,0.89-0.02,1.33-0.02C475.697,266.715,511.917,302.925,511.917,347.445z"/>
<rect x="416.19" y="265.05" style="fill:#C7C5CC;" width="30" height="47.94"/>
<rect x="429.86" y="265.05" style="fill:#ADACB2;" width="16.33" height="47.94"/>
<path style="fill:#FFC373;" d="M512,83.835v37.35c-10.82,7.22-25.3,15.74-43.68,24.19c-41.34,19.03-111.74,41.71-212.32,41.71
	s-170.98-22.68-212.32-41.71c-18.38-8.45-32.86-16.97-43.68-24.19v-37.35c7.25,6.14,26.17,20.66,57.89,35.05
	c38.4,17.43,103.95,38.2,198.11,38.2s159.71-20.77,198.11-38.2C485.83,104.495,504.75,89.975,512,83.835z"/>
<path style="fill:#FFA920;" d="M512,83.835v37.35c-10.82,7.22-25.3,15.74-43.68,24.19c-41.34,19.03-111.74,41.71-212.32,41.71v-30
	c94.16,0,159.71-20.77,198.11-38.2C485.83,104.495,504.75,89.975,512,83.835z"/>
<g>
</g>
<g>
</g>
<g>
</g>
<g>
</g>
<g>
</g>
<g>
</g>
<g>
</g>
<g>
</g>
<g>
</g>
<g>
</g>
<g>
</g>
<g>
</g>
<g>
</g>
<g>
</g>
<g>
</g>
</svg>
