<?xml version="1.0" encoding="iso-8859-1"?>
<!-- Generator: Adobe Illustrator 19.0.0, SVG Export Plug-In . SVG Version: 6.00 Build 0)  -->
<svg xmlns="http://www.w3.org/2000/svg" xmlns:xlink="http://www.w3.org/1999/xlink" version="1.1" id="Capa_1" x="0px" y="0px" viewBox="0 0 512.002 512.002" style="enable-background:new 0 0 512.002 512.002;" xml:space="preserve" width="512px" height="512px">
<g>
	<g>
		<path d="M502.002,0H10C4.477,0,0,4.477,0,10v492.002c0,5.523,4.477,10,10,10h492.002c5.523,0,10-4.477,10-10V10    C512.002,4.477,507.525,0,502.002,0z M492.002,492.002H20V20h472.002V492.002z" fill="#D80027"/>
	</g>
</g>
<g>
	<g>
		<path d="M462.002,40H50c-5.523,0-10,4.477-10,10v412.002c0,5.523,4.477,10.001,10,10.001h295.226h12.111h29.326    c5.523,0,10-4.477,10-10s-4.477-10-10-10h-29.326h-12.111H60V60h392.002v402.002c0,5.523,4.477,10,10,10s10-4.477,10-10V50    C472.002,44.477,467.525,40,462.002,40z" fill="#D80027"/>
	</g>
</g>
<g>
	<g>
		<path d="M416.223,452.003h-0.475c-5.523,0-10,4.477-10,10s4.477,10,10,10h0.475c5.523,0,10-4.477,10-10    C426.223,456.479,421.746,452.003,416.223,452.003z" fill="#D80027"/>
	</g>
</g>
<g>
	<g>
		<path d="M304.237,156.688h-82.779c-5.523,0-10,4.477-10,10v59.75c0,5.523,4.477,10,10,10h82.779    c21.987,0,39.874-17.888,39.874-39.875S326.224,156.688,304.237,156.688z M304.237,216.438h-72.779v-39.75h72.779    c10.773,0,19.874,9.102,19.874,19.875S315.01,216.438,304.237,216.438z" fill="#D80027"/>
	</g>
</g>
<g>
	<g>
		<path d="M382.824,113.379c-4.013-3.794-10.342-3.616-14.137,0.396c-3.794,4.013-3.617,10.342,0.397,14.137    c18.883,17.854,29.714,42.876,29.714,68.651c0,52.141-42.42,94.561-94.561,94.561h-82.779c-5.523,0-10,4.477-10,10v81.534    c0,5.523,4.477,10,10,10h33.568v17.343H113.204v-17.343h33.567c5.523,0,10-4.477,10-10V129.344c0-5.523-4.477-10-10-10h-33.567    v-17.342h191.032c5.523,0,10-4.477,10-10s-4.477-10-10-10H103.204c-5.523,0-10,4.477-10,10v37.342c0,5.523,4.477,10,10,10h33.567    v233.314h-33.567c-5.523,0-10,4.477-10,10v37.343c0,5.523,4.477,10,10,10h161.822c5.523,0,10-4.477,10-10v-37.343    c0-5.523-4.477-10-10-10h-33.568v-61.534h72.779v0.001c63.169,0,114.561-51.392,114.561-114.562    C418.798,165.313,405.686,134.994,382.824,113.379z" fill="#D80027"/>
	</g>
</g>
<g>
	<g>
		<path d="M340.097,88.159h-0.592c-5.523,0-10,4.477-10,10s4.477,10,10,10h0.592c5.523,0,10-4.477,10-10    S345.62,88.159,340.097,88.159z" fill="#D80027"/>
	</g>
</g>
<g>
</g>
<g>
</g>
<g>
</g>
<g>
</g>
<g>
</g>
<g>
</g>
<g>
</g>
<g>
</g>
<g>
</g>
<g>
</g>
<g>
</g>
<g>
</g>
<g>
</g>
<g>
</g>
<g>
</g>
</svg>
