<svg width="120" height="120" xmlns="http://www.w3.org/2000/svg">
 <!-- Created with Method Draw - http://github.com/duopixel/Method-Draw/ -->
 <g>
  <title>Layer 1</title>
  <path stroke="#a0a0a0" id="svg_1" d="m59.466005,15.466c-24.853106,0 -45.000005,19.25148 -45.000005,43.000001c0,23.748522 20.146899,43.000001 45.000005,43.000001c24.853106,0 45.000005,-19.25148 45.000005,-43.000001c0,-23.748522 -20.146899,-43.000001 -45.000005,-43.000001zm0,77.121304c-19.694856,0 -35.711439,-15.307693 -35.711439,-34.121303c0,-18.816569 16.016584,-34.124261 35.711439,-34.124261c19.694856,0 35.708343,15.304734 35.708343,34.124261c0,18.819527 -16.01968,34.121303 -35.708343,34.121303zm-0.003096,-66.29586c-1.712192,0 -3.093092,1.325444 -3.093092,2.95858l0,27.281066l-18.719556,7.822485c-1.566671,0.656805 -2.278795,2.402367 -1.591441,3.899408c0.507775,1.109467 1.64098,1.772189 2.833013,1.772189c0.414889,0 0.839067,-0.079882 1.241572,-0.251479l20.515346,-8.573965c0.015481,-0.005917 0.027866,-0.011834 0.04025,-0.017751l0.012385,-0.005917c0.046443,-0.017751 0.071212,-0.059172 0.114559,-0.073964c0.322004,-0.153846 0.622334,-0.33432 0.863837,-0.576923c0.10527,-0.100592 0.164098,-0.230769 0.244599,-0.346154c0.148617,-0.189349 0.312715,-0.37574 0.402505,-0.60355c0.074309,-0.177515 0.080501,-0.369822 0.117655,-0.559172c0.04025,-0.192308 0.117655,-0.360947 0.117655,-0.553254l0,-29.215977c0,-1.630178 -1.387092,-2.955621 -3.099285,-2.955621z" fill-opacity="0" stroke-opacity="null" stroke-width="1.5" fill="#0fffff"/>
 </g>
</svg>