<?xml version="1.0" encoding="iso-8859-1"?>
<!-- Generator: Adobe Illustrator 19.0.0, SVG Export Plug-In . SVG Version: 6.00 Build 0)  -->
<svg version="1.1" id="Capa_1" xmlns="http://www.w3.org/2000/svg" xmlns:xlink="http://www.w3.org/1999/xlink" x="0px" y="0px"
	 viewBox="0 0 479.969 479.969" style="enable-background:new 0 0 479.969 479.969;" xml:space="preserve">
<path style="fill:#2276BB;" d="M238.72,14.445l-10.544-6.472l-10.544,6.472C170.603,43.426,114.303,53.412,60.176,42.373v245.92
	c-0.012,30.171,8.015,59.801,23.256,85.84c17.464,29.924,43.938,53.564,75.64,67.544l69.104,30.296l69.104-30.296
	c3.701-1.6,7.333-3.357,10.896-5.272v-0.048c26.917-14.348,49.32-35.89,64.712-62.224c15.258-26.045,23.296-55.687,23.288-85.872
	V42.373C342.048,53.412,285.749,43.426,238.72,14.445z"/>
<path style="fill:#1D5C88;" d="M228.176,55.973l-8.36,5.136c-37.303,22.976-81.955,30.885-124.88,22.12v195.04
	c-0.025,23.935,6.326,47.445,18.4,68.112c13.854,23.741,34.853,42.5,60,53.6l54.84,23.992V55.973z"/>
<path style="fill:#59CE41;" d="M148.176,255.973l64,64l136-136l-32-32l-104,104l-32-32L148.176,255.973z"/>
<path d="M155.896,449.005l69.08,30.296c2.04,0.891,4.36,0.891,6.4,0l69.104-30.296c3.888-1.704,7.712-3.552,11.44-5.528
	c3.904-2.072,5.388-6.916,3.316-10.82c-2.072-3.904-6.916-5.388-10.82-3.316c-3.381,1.792-6.835,3.461-10.36,5.008l-65.88,28.888
	l-65.856-28.864c-30.21-13.237-55.425-35.741-72-64.256c-14.524-24.833-22.168-53.088-22.144-81.856V51.933
	c53.22,8.501,107.723-2.38,153.6-30.664l6.4-3.912l6.4,3.904c45.871,28.298,100.379,39.182,153.6,30.672v236.328
	c0,4.418,3.582,8,8,8s8-3.582,8-8V42.373c-0.004-4.418-3.588-7.997-8.006-7.994c-0.535,0-1.069,0.055-1.594,0.162
	c-52.133,10.676-106.375,1.062-151.664-26.88l-10.552-6.48c-2.567-1.575-5.801-1.575-8.368,0l-10.552,6.48
	c-45.293,27.931-99.535,37.533-151.664,26.848c-4.329-0.884-8.555,1.909-9.438,6.238c-0.109,0.535-0.163,1.08-0.162,1.626v245.92
	c-0.014,31.604,8.392,62.642,24.352,89.92C94.803,409.634,122.599,434.426,155.896,449.005L155.896,449.005z"/>
<path d="M224.256,70.869c3.907-2.064,5.401-6.904,3.337-10.81c-2.064-3.907-6.904-5.401-10.81-3.337
	c-0.207,0.11-0.41,0.228-0.607,0.355c-36.902,21.617-80.438,28.99-122.4,20.728c-4.329-0.884-8.555,1.909-9.438,6.238
	c-0.108,0.53-0.162,1.069-0.162,1.61v191.12c0.015,25.044,6.968,49.595,20.088,70.928c15.321,24.978,38.148,44.473,65.216,55.696
	c4.076,1.708,8.764-0.212,10.472-4.288c1.708-4.076-0.212-8.764-4.288-10.472c-23.972-9.93-44.19-27.188-57.76-49.304
	c-11.573-18.816-17.709-40.47-17.728-62.56V95.125C143.09,101.364,186.85,92.809,224.256,70.869L224.256,70.869z"/>
<path d="M372.176,471.973c8.837,0,16-7.163,16-16c-0.019-1.383-0.221-2.758-0.6-4.088l38.256-38.256
	c2.898-3.335,2.544-8.388-0.791-11.286c-2.998-2.606-7.454-2.617-10.465-0.026l-38.256,38.256c-2.667-0.8-5.509-0.8-8.176,0
	l-70.256-70.256c-3.178-3.07-8.242-2.982-11.312,0.196c-2.995,3.1-2.995,8.016,0,11.116l70.248,70.256
	c-2.369,8.398,2.52,17.127,10.918,19.495C369.184,471.788,370.677,471.987,372.176,471.973L372.176,471.973z"/>
<path d="M212.176,327.973c2.122,0,4.156-0.844,5.656-2.344l136-136c3.123-3.124,3.123-8.188,0-11.312l-32-32
	c-3.124-3.123-8.188-3.123-11.312,0l-98.344,98.344l-26.344-26.344c-3.124-3.123-8.188-3.123-11.312,0l-32,32
	c-3.123,3.124-3.123,8.188,0,11.312l64,64C208.02,327.13,210.054,327.973,212.176,327.973L212.176,327.973z M180.176,235.285
	l26.4,26.344c3.124,3.123,8.188,3.123,11.312,0l98.288-98.344l20.72,20.688l-124.72,124.688l-52.656-52.688L180.176,235.285z"/>
<g>
</g>
<g>
</g>
<g>
</g>
<g>
</g>
<g>
</g>
<g>
</g>
<g>
</g>
<g>
</g>
<g>
</g>
<g>
</g>
<g>
</g>
<g>
</g>
<g>
</g>
<g>
</g>
<g>
</g>
</svg>
