<?xml version="1.0" encoding="iso-8859-1"?>
<!-- Generator: Adobe Illustrator 19.0.0, SVG Export Plug-In . SVG Version: 6.00 Build 0)  -->
<svg xmlns="http://www.w3.org/2000/svg" xmlns:xlink="http://www.w3.org/1999/xlink" version="1.1" id="Capa_1" x="0px" y="0px" viewBox="0 0 512 512" style="enable-background:new 0 0 512 512;" xml:space="preserve" width="512px" height="512px">
<g>
	<g>
		<path d="M218.802,370.432c-4.53-7.416-7.802-12.775-7.802-24.932h-30c0,20.593,6.764,31.668,12.198,40.568    C197.728,393.484,201,398.843,201,411c0,12.157-3.272,17.516-7.802,24.932C187.764,444.832,181,455.907,181,476.5h30    c0-12.157,3.272-17.516,7.802-24.932C224.236,442.668,231,431.593,231,411C231,390.407,224.236,379.332,218.802,370.432z" fill="#FFFFFF"/>
	</g>
</g>
<g>
	<g>
		<path d="M158.802,370.432c-4.53-7.416-7.802-12.775-7.802-24.932h-30c0,20.593,6.764,31.668,12.198,40.568    C137.728,393.484,141,398.843,141,411c0,12.157-3.272,17.516-7.802,24.932C127.764,444.832,121,455.907,121,476.5h30    c0-12.157,3.272-17.516,7.802-24.932C164.236,442.668,171,431.593,171,411C171,390.407,164.236,379.332,158.802,370.432z" fill="#FFFFFF"/>
	</g>
</g>
<g>
	<g>
		<path d="M278.802,370.432c-4.53-7.416-7.802-12.775-7.802-24.932h-30c0,20.593,6.764,31.668,12.198,40.568    C257.728,393.484,261,398.843,261,411c0,12.157-3.272,17.516-7.802,24.932C247.764,444.832,241,455.907,241,476.5h30    c0-12.157,3.272-17.516,7.802-24.932C284.236,442.668,291,431.593,291,411C291,390.407,284.236,379.332,278.802,370.432z" fill="#FFFFFF"/>
	</g>
</g>
<g>
	<g>
		<path d="M338.802,370.432c-4.53-7.416-7.802-12.775-7.802-24.932h-30c0,20.593,6.764,31.668,12.198,40.568    C317.728,393.484,321,398.843,321,411c0,12.157-3.272,17.516-7.802,24.932C307.764,444.832,301,455.907,301,476.5h30    c0-12.157,3.272-17.516,7.802-24.932C344.236,442.668,351,431.593,351,411C351,390.407,344.236,379.332,338.802,370.432z" fill="#FFFFFF"/>
	</g>
</g>
<g>
	<g>
		<path d="M398.802,370.432c-4.53-7.416-7.802-12.775-7.802-24.932h-30c0,20.593,6.764,31.668,12.198,40.568    C377.728,393.484,381,398.843,381,411c0,12.157-3.272,17.516-7.802,24.932C367.764,444.832,361,455.907,361,476.5h30    c0-12.157,3.272-17.516,7.802-24.932C404.236,442.668,411,431.593,411,411C411,390.407,404.236,379.332,398.802,370.432z" fill="#FFFFFF"/>
	</g>
</g>
<g>
	<g>
		<rect y="35.5" width="512" height="120" fill="#FFFFFF"/>
	</g>
</g>
<g>
	<g>
		<path d="M58.516,185.5l24.615,130h345.738l24.615-130H58.516z M151,270.5h-30v-40h30V270.5z M211,270.5h-30v-40h30V270.5z     M271,270.5h-30v-40h30V270.5z M331,270.5h-30v-40h30V270.5z M391,270.5h-30v-40h30V270.5z" fill="#FFFFFF"/>
	</g>
</g>
<g>
</g>
<g>
</g>
<g>
</g>
<g>
</g>
<g>
</g>
<g>
</g>
<g>
</g>
<g>
</g>
<g>
</g>
<g>
</g>
<g>
</g>
<g>
</g>
<g>
</g>
<g>
</g>
<g>
</g>
</svg>
