<svg width="120" height="120" xmlns="http://www.w3.org/2000/svg">
 <!-- Created with Method Draw - http://github.com/duopixel/Method-Draw/ -->
 <g>
  <title>Layer 1</title>
  <path stroke="#a0a0a0" fill-opacity="0" id="svg_1" d="m92.813503,38.029512c-0.283849,-10.912198 -10.184617,-19.680333 -22.362346,-19.685895c-8.139055,0.002781 -15.247615,3.926612 -19.15362,9.780377c-1.835761,-0.90935 -3.9492,-1.437718 -6.201478,-1.437718c-7.031427,0.005562 -12.751597,5.022281 -13.007678,11.307084c-7.383153,2.185777 -12.726914,8.412181 -12.733085,15.81212c0,9.210296 8.290235,16.685318 18.511875,16.685318l0,-0.005562l48.976252,0c10.218555,0 18.511875,-7.475023 18.511875,-16.685318c-0.006171,-7.333197 -5.257373,-13.534574 -12.541796,-15.770407zm-5.97008,26.899514l-48.979337,0c-6.815455,-0.016685 -12.331994,-4.983348 -12.344336,-11.126326c-0.006171,-5.511717 4.473703,-10.061247 10.335797,-10.931664c0.817608,-0.119578 1.548827,-0.531149 2.02705,-1.151287c0.478223,-0.620138 0.654086,-1.382101 0.502906,-2.121816c-0.086389,-0.411571 -0.138839,-0.800895 -0.138839,-1.179096c0.012341,-3.406586 3.069886,-6.162444 6.849394,-6.168006c1.996197,0 3.754825,0.773086 5.038315,2.032828c0.718878,0.714688 1.811078,1.042832 2.860085,0.859294c1.055177,-0.183539 1.931406,-0.853732 2.307814,-1.751958c2.310899,-5.539526 8.213102,-9.488384 15.15197,-9.482823c8.944321,0.011124 16.179379,6.535083 16.200976,14.596873c0,0.447723 -0.027768,0.906569 -0.083303,1.382101c-0.15118,1.437718 0.94102,2.736392 2.51453,3.000576c5.738681,0.956625 10.101313,5.467223 10.092057,10.909417c-0.012341,6.145759 -5.519624,11.115203 -12.33508,11.131888zm-44.450098,26.982941c0,-3.100688 0.064792,-15.086309 0.064792,-15.105775c0.006171,-1.137383 -0.762072,-2.166311 -1.937576,-2.591786c-1.172419,-0.422695 -2.51453,-0.164072 -3.390759,0.667413c-0.018512,0.022247 -3.199469,3.053413 -6.420535,6.512836c-1.613618,1.743616 -3.233408,3.579001 -4.513812,5.272561c-1.23104,1.802014 -2.32324,2.964425 -2.502188,5.241971c0.009256,4.655204 4.183684,8.426086 9.354668,8.434428c5.158643,-0.011124 9.345412,-3.782005 9.345412,-8.431648zm-12.520198,0.12514c0.280763,-0.970529 3.335223,-4.780344 6.149028,-7.68637c0.077133,-0.080646 0.157351,-0.169634 0.234484,-0.247499c-0.015427,3.125716 -0.030853,6.379353 -0.030853,7.808729c0,1.576763 -1.422329,2.858751 -3.174787,2.864313c-1.709263,-0.005562 -3.097654,-1.220809 -3.177872,-2.739173zm35.33917,-0.12514c0,-3.100688 0.064792,-15.083528 0.064792,-15.100213c0.006171,-1.140163 -0.762072,-2.166311 -1.937576,-2.597348c-1.175504,-0.422695 -2.511444,-0.161291 -3.393844,0.672975c-0.018512,0.022247 -3.193299,3.04229 -6.41745,6.512836c-1.610533,1.732492 -3.230322,3.573439 -4.513812,5.266999c-1.23104,1.804795 -2.32324,2.969987 -2.496018,5.250314c0,4.649642 4.177513,8.420524 9.345412,8.420524c5.161728,-0.002781 9.348497,-3.776444 9.348497,-8.426086zm-12.526369,0.130702c0.283849,-0.970529 3.335223,-4.783125 6.149028,-7.689151c0.077133,-0.083427 0.154266,-0.166853 0.231398,-0.247499c-0.015427,3.122935 -0.033938,6.379353 -0.033938,7.805948c-0.006171,1.579543 -1.422329,2.85597 -3.171701,2.861532c-1.709263,-0.005562 -3.091483,-1.218028 -3.174787,-2.73083zm33.648419,-17.831044c-1.172419,-0.425476 -2.517615,-0.166853 -3.390759,0.667413c-0.027768,0.022247 -3.199469,3.050632 -6.41745,6.512836c-1.613618,1.738054 -3.236493,3.573439 -4.510727,5.272561c-1.240296,1.804795 -2.326326,2.967206 -2.505274,5.244752c0,4.649642 4.177513,8.423305 9.348497,8.423305c5.161728,0 9.339241,-3.773663 9.339241,-8.423305c0,-3.100688 0.067877,-15.086309 0.067877,-15.102994c0.009256,-1.140163 -0.758987,-2.169091 -1.931406,-2.594567zm-4.294755,17.697561c-0.012341,1.579543 -1.4285,2.85597 -3.180957,2.861532c-1.706178,-0.005562 -3.091483,-1.218028 -3.171701,-2.73083c0.283849,-0.970529 3.335223,-4.783125 6.149028,-7.689151c0.077133,-0.077865 0.154266,-0.164072 0.228313,-0.244718c-0.012341,3.122935 -0.024683,6.373792 -0.024683,7.803167z" stroke-width="1.5" fill="#0fffff"/>
 </g>
</svg>