<?xml version="1.0" encoding="iso-8859-1"?>
<!-- Generator: Adobe Illustrator 19.0.0, SVG Export Plug-In . SVG Version: 6.00 Build 0)  -->
<svg xmlns="http://www.w3.org/2000/svg" xmlns:xlink="http://www.w3.org/1999/xlink" version="1.1" id="Layer_1" x="0px" y="0px" viewBox="0 0 512 512" style="enable-background:new 0 0 512 512;" xml:space="preserve" width="512px" height="512px">
<g>
	<g>
		<path d="M3.862,0v35.182h0.001h17.922V512h125.146v-17.591c0-4.937-0.05-9.744-0.147-14.433h218.433    c-0.095,4.689-0.147,9.496-0.147,14.433V512h125.146V35.182h17.922V0H3.862z M293.993,35.182    c-0.263,50.122,0.296,125.044,52.217,214.245h-72.617V35.182H293.993z M56.967,476.818V35.182h125.86    c0.339,63.949-0.568,159.565-106.749,276.34L63.21,325.671l15.175,11.642c0.318,0.244,30.246,28.323,33.139,139.505H56.967z     M238.41,444.794h-93.332c-5.371-67.952-21.319-103.59-32.871-120.997c11.481-13.292,21.713-26.363,30.844-39.188h95.359V444.794z     M238.41,249.427h-72.617c51.921-89.201,52.479-164.123,52.216-214.245h20.401V249.427z M366.924,444.794h-93.332V284.609h95.359    c9.131,12.825,19.363,25.896,30.844,39.188C388.244,341.204,372.296,376.842,366.924,444.794z M455.036,476.818h-54.547    c0.928-34.266,4.886-76.383,16.875-109.355c7.536-20.727,15.083-28.901,16.503-30.314l15.878-10.43l-13.819-15.198    C329.743,194.747,328.836,99.131,329.175,35.182h125.86V476.818z" fill="#e50f29"/>
	</g>
</g>
<g>
</g>
<g>
</g>
<g>
</g>
<g>
</g>
<g>
</g>
<g>
</g>
<g>
</g>
<g>
</g>
<g>
</g>
<g>
</g>
<g>
</g>
<g>
</g>
<g>
</g>
<g>
</g>
<g>
</g>
</svg>
