<?xml version="1.0" encoding="iso-8859-1"?>
<!-- Generator: Adobe Illustrator 19.0.0, SVG Export Plug-In . SVG Version: 6.00 Build 0)  -->
<svg xmlns="http://www.w3.org/2000/svg" xmlns:xlink="http://www.w3.org/1999/xlink" version="1.1" id="Capa_1" x="0px" y="0px" viewBox="0 0 512 512" style="enable-background:new 0 0 512 512;" xml:space="preserve" width="512px" height="512px">
<g>
	<g>
		<path d="M208.05,266.112c-11.52,4.598-24.077,7.131-37.217,7.131s-25.699-2.533-37.218-7.131c-2.582-1.03-5.382,0.897-5.382,3.677    v6.022c0,10.474,6.85,19.374,16.303,22.469c1.141,10.849,10.341,19.331,21.487,19.331h9.622c11.146,0,20.345-8.484,21.487-19.331    c9.453-3.095,16.302-11.996,16.302-22.469v-6.022C213.432,267.009,210.632,265.081,208.05,266.112z" fill="#FFFFFF"/>
	</g>
</g>
<g>
	<g>
		<path d="M170.832,55.188c-55.553,0-100.749,45.196-100.749,100.749c0,55.552,45.196,100.747,100.749,100.747    c55.553,0,100.747-45.196,100.747-100.747C271.58,100.383,226.384,55.188,170.832,55.188z" fill="#FFFFFF"/>
	</g>
</g>
<g>
	<g>
		<path d="M170.832,0c-8.287,0-15.006,6.719-15.006,15.006v14.59c0,8.287,6.719,15.006,15.006,15.006    c8.287,0,15.006-6.719,15.006-15.006v-14.59C185.839,6.719,179.12,0,170.832,0z" fill="#FFFFFF"/>
	</g>
</g>
<g>
	<g>
		<path d="M43.58,138.481H28.99c-8.287,0-15.006,6.719-15.006,15.006s6.719,15.006,15.006,15.006h14.59    c8.287,0,15.006-6.719,15.006-15.006S51.867,138.481,43.58,138.481z" fill="#FFFFFF"/>
	</g>
</g>
<g>
	<g>
		<path d="M313.253,138.481h-14.59c-8.287,0-15.006,6.719-15.006,15.006s6.719,15.006,15.006,15.006h14.59    c8.287,0,15.006-6.719,15.006-15.006S321.541,138.481,313.253,138.481z" fill="#FFFFFF"/>
	</g>
</g>
<g>
	<g>
		<path d="M83.021,230.398c-5.859-5.86-15.361-5.859-21.222-0.001l-10.317,10.316c-5.859,5.859-5.86,15.361-0.001,21.223    c2.931,2.93,6.772,4.396,10.611,4.396c3.839,0,7.681-1.466,10.61-4.395l10.317-10.316C88.88,245.76,88.881,236.259,83.021,230.398    z" fill="#FFFFFF"/>
	</g>
</g>
<g>
	<g>
		<path d="M284.504,42.259c-5.859-5.859-15.361-5.859-21.222,0l-10.317,10.317c-5.86,5.859-5.86,15.361,0,21.222    c2.931,2.93,6.772,4.396,10.611,4.396c3.841,0,7.681-1.466,10.61-4.396l10.317-10.317    C290.365,57.622,290.365,48.12,284.504,42.259z" fill="#FFFFFF"/>
	</g>
</g>
<g>
	<g>
		<path d="M287.12,239.753l-11.061-9.515c-6.284-5.406-15.759-4.693-21.162,1.59c-5.404,6.283-4.693,15.758,1.59,21.162    l11.061,9.515c2.833,2.438,6.315,3.63,9.779,3.63c4.22,0,8.415-1.771,11.383-5.22C294.114,254.632,293.403,245.157,287.12,239.753    z" fill="#FFFFFF"/>
	</g>
</g>
<g>
	<g>
		<path d="M91.083,52.578L80.766,42.26c-5.859-5.859-15.361-5.859-21.222,0c-5.86,5.859-5.86,15.361,0,21.222l10.317,10.317    c2.93,2.93,6.771,4.396,10.61,4.396s7.681-1.466,10.61-4.396C96.943,67.94,96.943,58.438,91.083,52.578z" fill="#FFFFFF"/>
	</g>
</g>
<g>
	<g>
		<path d="M443.889,251.744c-28.304-13.684-38.997-13.686-67.286-0.009l-0.535,0.258c-7.467,3.597-10.604,12.566-7.007,20.031    c2.586,5.367,7.946,8.497,13.53,8.497c2.185,0,4.402-0.479,6.502-1.491l0.555-0.267c20.203-9.77,20.974-9.77,41.177,0    c7.463,3.606,16.435,0.483,20.042-6.979C454.474,264.324,451.35,255.351,443.889,251.744z" fill="#FFFFFF"/>
	</g>
</g>
<g>
	<g>
		<path d="M466.899,216.129l-6.233-2.549c-39.554-16.183-61.215-16.184-100.771-0.001l-6.234,2.55    c-7.671,3.138-11.346,11.9-8.208,19.571c3.138,7.671,11.9,11.347,19.571,8.208l6.235-2.551    c32.458-13.278,45.587-13.276,78.044,0.001l6.234,2.55c1.859,0.759,3.784,1.12,5.674,1.12c5.913,0,11.519-3.518,13.896-9.329    C478.245,228.029,474.571,219.267,466.899,216.129z" fill="#FFFFFF"/>
	</g>
</g>
<g>
	<g>
		<path d="M488.688,181.466l-8.444-3.454c-52.543-21.494-88.009-21.495-140.553-0.001l-8.444,3.455    c-7.67,3.137-11.345,11.9-8.207,19.571c3.139,7.669,11.898,11.346,19.571,8.207l8.444-3.455    c45.15-18.469,72.679-18.469,117.825,0.001l8.444,3.454c1.86,0.76,3.784,1.12,5.676,1.12c5.912,0,11.519-3.518,13.895-9.328    C500.033,193.365,496.359,184.602,488.688,181.466z" fill="#FFFFFF"/>
	</g>
</g>
<g>
	<g>
		<path d="M466.92,293.901H355.014c-14.961,0-27.09,12.129-27.09,27.09v79.111c0,4.971,4.03,9.001,9.001,9.001H485.01    c4.971,0,9.001-4.03,9.001-9.001v-79.111C494.011,306.03,481.883,293.901,466.92,293.901z" fill="#FFFFFF"/>
	</g>
</g>
<g>
	<g>
		<path d="M485.01,439.116H336.925c-4.971,0-9.001,4.03-9.001,9.001v36.793c0,14.961,12.129,27.09,27.09,27.09H466.92    c14.961,0,27.09-12.129,27.09-27.09v-36.793C494.011,443.146,489.981,439.116,485.01,439.116z M425.902,462.268    c-0.05,0.49-0.12,0.98-0.22,1.461c-0.1,0.48-0.22,0.96-0.36,1.421c-0.14,0.47-0.31,0.931-0.5,1.381    c-0.18,0.46-0.399,0.9-0.62,1.331c-0.229,0.431-0.489,0.86-0.76,1.26c-0.27,0.41-0.56,0.811-0.87,1.19    c-0.31,0.38-0.649,0.75-0.989,1.09c-0.351,0.351-0.721,0.681-1.102,1c-0.38,0.3-0.78,0.601-1.18,0.87    c-0.41,0.271-0.83,0.521-1.26,0.75c-0.431,0.23-0.881,0.44-1.331,0.63c-0.45,0.181-0.92,0.351-1.381,0.49    c-0.471,0.15-0.95,0.27-1.432,0.36c-0.479,0.1-0.97,0.17-1.451,0.22c-0.489,0.05-0.989,0.08-1.48,0.08    c-0.49,0-0.98-0.03-1.471-0.08c-0.49-0.05-0.98-0.12-1.461-0.22c-0.48-0.091-0.96-0.21-1.421-0.36    c-0.471-0.14-0.931-0.31-1.392-0.49c-0.45-0.189-0.89-0.399-1.321-0.63c-0.43-0.229-0.859-0.479-1.26-0.75    c-0.41-0.27-0.81-0.57-1.19-0.87c-0.38-0.319-0.75-0.649-1.101-1c-0.34-0.34-0.67-0.71-0.989-1.09    c-0.301-0.38-0.601-0.78-0.87-1.19c-0.271-0.399-0.521-0.829-0.75-1.26c-0.23-0.43-0.44-0.87-0.63-1.331    c-0.19-0.449-0.351-0.91-0.49-1.381c-0.15-0.46-0.271-0.939-0.36-1.421c-0.1-0.479-0.17-0.97-0.22-1.461    c-0.05-0.49-0.08-0.979-0.08-1.471s0.03-0.99,0.08-1.481c0.05-0.479,0.12-0.97,0.22-1.451c0.09-0.479,0.21-0.96,0.36-1.431    c0.14-0.46,0.3-0.93,0.49-1.381c0.189-0.45,0.399-0.9,0.63-1.331c0.229-0.43,0.479-0.85,0.75-1.26    c0.27-0.41,0.569-0.811,0.87-1.18c0.319-0.381,0.649-0.75,0.989-1.102c0.351-0.34,0.721-0.68,1.101-0.99s0.779-0.6,1.19-0.869    c0.4-0.271,0.83-0.53,1.26-0.761c0.431-0.229,0.87-0.439,1.321-0.62c0.46-0.189,0.92-0.359,1.392-0.5    c0.46-0.14,0.939-0.26,1.421-0.359c0.479-0.101,0.97-0.17,1.461-0.221c4.432-0.449,8.943,1.181,12.085,4.322    c0.34,0.351,0.68,0.72,0.989,1.101c0.311,0.369,0.601,0.77,0.87,1.18c0.271,0.41,0.53,0.83,0.76,1.261    c0.221,0.43,0.44,0.88,0.62,1.331c0.19,0.45,0.36,0.92,0.5,1.381c0.141,0.47,0.261,0.95,0.36,1.431    c0.1,0.48,0.17,0.971,0.22,1.451c0.05,0.49,0.07,0.99,0.07,1.481C425.971,461.287,425.952,461.777,425.902,462.268z" fill="#FFFFFF"/>
	</g>
</g>
<g>
	<g>
		<path d="M293.031,439.116H185.839v-47.32l4.418,3.124c2.632,1.861,5.655,2.755,8.652,2.755c4.706,0,9.341-2.208,12.265-6.343    c4.785-6.767,3.179-16.131-3.588-20.917L179.993,350.9c-2.688-1.901-5.785-2.777-8.845-2.738    c-0.106-0.002-0.209-0.016-0.316-0.016c-0.045,0-0.089,0.006-0.135,0.007c-0.335,0.003-0.669,0.026-1.004,0.051    c-0.162,0.012-0.327,0.017-0.488,0.034c-0.323,0.035-0.644,0.091-0.965,0.147c-0.169,0.03-0.341,0.05-0.508,0.085    c-0.285,0.06-0.566,0.141-0.848,0.218c-0.197,0.053-0.396,0.099-0.59,0.16c-0.233,0.074-0.462,0.167-0.692,0.253    c-0.234,0.087-0.472,0.168-0.701,0.267c-0.188,0.081-0.371,0.179-0.556,0.268c-0.263,0.127-0.528,0.25-0.782,0.392    c-0.163,0.091-0.321,0.196-0.482,0.293c-0.266,0.161-0.532,0.322-0.787,0.499c-0.041,0.028-0.084,0.05-0.125,0.079l-27.594,19.515    c-6.767,4.785-8.372,14.151-3.587,20.917c2.924,4.135,7.559,6.343,12.265,6.343c2.995,0,6.02-0.894,8.652-2.755l3.924-2.775    v61.976c0,8.287,6.719,15.006,15.006,15.006h122.201c8.287,0,15.006-6.719,15.006-15.006    C308.042,445.833,301.318,439.116,293.031,439.116z" fill="#FFFFFF"/>
	</g>
</g>
<g>
</g>
<g>
</g>
<g>
</g>
<g>
</g>
<g>
</g>
<g>
</g>
<g>
</g>
<g>
</g>
<g>
</g>
<g>
</g>
<g>
</g>
<g>
</g>
<g>
</g>
<g>
</g>
<g>
</g>
</svg>
