<svg width="120" height="120" xmlns="http://www.w3.org/2000/svg">
 <!-- Created with Method Draw - http://github.com/duopixel/Method-Draw/ -->
 <g>
  <title>Layer 1</title>
  <path id="svg_1" d="m59.253085,37.380778c-13.405675,0 -24.262731,10.625709 -24.262731,23.74573c0,13.110972 10.857056,23.742713 24.262731,23.742713c13.393348,0 24.256568,-10.631741 24.256568,-23.742713c0.003082,-13.120021 -10.857056,-23.74573 -24.256568,-23.74573zm0,41.459266c-9.997244,-0.024129 -18.07763,-7.932334 -18.102284,-17.71052c0.021572,-9.781202 8.10504,-17.692423 18.102284,-17.716552c9.99108,0.024129 18.071466,7.93535 18.093039,17.716552c-0.021572,9.778186 -8.101959,17.686391 -18.093039,17.71052zm0,-43.048749c1.704216,0 3.081764,-1.351211 3.081764,-3.019113l0,-14.631085c-0.006164,-1.667901 -1.38063,-3.016097 -3.081764,-3.016097c-1.704216,0 -3.084846,1.354227 -3.081764,3.022129l0,14.628069c0,1.661869 1.377549,3.016097 3.081764,3.016097zm9.901709,1.92427c0.385221,0.159853 0.78585,0.229223 1.177234,0.232239c1.214215,0 2.35755,-0.702751 2.850632,-1.863948l5.719755,-13.521162c0.647171,-1.541225 -0.095535,-3.302626 -1.667235,-3.939022c-1.574782,-0.636396 -3.377614,0.093499 -4.030948,1.631708l-5.716673,13.524178c-0.650252,1.538209 0.095535,3.302626 1.667235,3.936006zm8.397808,5.492312c0.600944,0.585123 1.389876,0.883716 2.178807,0.883716s1.577863,-0.295577 2.178807,-0.883716l10.570452,-10.35426c1.20497,-1.176278 1.201888,-3.085467 0,-4.267777c-1.208052,-1.176278 -3.158809,-1.176278 -4.360697,0.006032l-10.56737,10.348228c-1.20497,1.179294 -1.20497,3.088483 0,4.267777zm5.618057,8.215847c0.486919,1.161197 1.636417,1.860932 2.844469,1.860932c0.391384,0 0.792013,-0.075402 1.180316,-0.235256l13.806305,-5.600892c1.574782,-0.636396 2.320569,-2.403829 1.667235,-3.942038s-2.453084,-2.268105 -4.027866,-1.628692l-13.809386,5.600892c-1.5717,0.639413 -2.314405,2.406845 -1.661071,3.945055zm19.997569,6.66859l-14.949639,0.003016c-1.701134,0 -3.081764,1.351211 -3.075601,3.019113c0,1.667901 1.377549,3.013081 3.075601,3.013081l14.952721,-0.006032c1.704216,0 3.078683,-1.354227 3.078683,-3.016097c0,-1.667901 -1.38063,-3.019113 -3.081764,-3.013081zm-2.151072,16.672983l-13.812468,-5.591843c-1.577863,-0.639413 -3.380696,0.090483 -4.027866,1.631708c-0.650252,1.541225 0.095535,3.305642 1.667235,3.945055l13.812468,5.591843c0.388302,0.153821 0.788932,0.226207 1.180316,0.226207c1.211133,0 2.35755,-0.699734 2.850632,-1.860932c0.647171,-1.541225 -0.101698,-3.308658 -1.670316,-3.942038zm-19.088449,4.261745c-1.20497,-1.179294 -3.152645,-1.179294 -4.357615,0.003016c-1.20497,1.176278 -1.201888,3.082451 0,4.261745l10.582779,10.342196c0.600944,0.588139 1.386794,0.883716 2.175726,0.883716s1.580945,-0.295577 2.181889,-0.883716c1.20497,-1.18231 1.198806,-3.091499 0,-4.267777l-10.582779,-10.33918zm-8.724475,7.127037c-0.650252,-1.541225 -2.453084,-2.268105 -4.027866,-1.631708c-1.5717,0.639413 -2.317487,2.403829 -1.664153,3.945055l5.732082,13.512113c0.490001,1.161197 1.636417,1.860932 2.850632,1.860932c0.394466,0 0.795095,-0.072386 1.180316,-0.229223c1.574782,-0.636396 2.317487,-2.403829 1.664153,-3.948071l-5.735164,-13.509097zm-13.92033,0.310658c-1.704216,0 -3.081764,1.351211 -3.081764,3.016097l0.012327,14.631085c0,1.667901 1.383712,3.013081 3.081764,3.013081c1.704216,0 3.081764,-1.351211 3.075601,-3.016097l-0.009245,-14.634101c0,-1.658853 -1.383712,-3.013081 -3.078683,-3.010065zm-9.910954,-1.918238c-1.5717,-0.63338 -3.37145,0.093499 -4.024784,1.637741l-5.707428,13.521162c-0.647171,1.541225 0.101698,3.305642 1.673398,3.942038c0.385221,0.156837 0.782768,0.229223 1.177234,0.229223c1.208052,0 2.35755,-0.705767 2.84755,-1.866964l5.710509,-13.527194c0.650252,-1.538209 -0.101698,-3.29961 -1.67648,-3.936006zm-8.40089,-5.480248c-1.208052,-1.179294 -3.158809,-1.173262 -4.360697,0.006032l-10.558125,10.35426c-1.20497,1.18231 -1.198806,3.085467 0.006164,4.267777c0.600944,0.585123 1.386794,0.8807 2.175726,0.8807c0.792013,0 1.580945,-0.295577 2.181889,-0.883716l10.561207,-10.357276c1.198806,-1.179294 1.198806,-3.088483 -0.006164,-4.267777zm-5.621138,-8.206799c-0.656416,-1.535193 -2.456166,-2.265089 -4.027866,-1.628692l-13.803223,5.612956c-1.574782,0.639413 -2.317487,2.406845 -1.664153,3.945055c0.493082,1.161197 1.636417,1.857916 2.84755,1.857916c0.391384,0 0.795095,-0.072386 1.180316,-0.229223l13.803223,-5.612956c1.568618,-0.645445 2.314405,-2.409861 1.664153,-3.945055zm-1.99082,-9.687703c0,-1.667901 -1.377549,-3.013081 -3.081764,-3.013081l-14.949639,0.018097c-1.704216,0 -3.084846,1.351211 -3.078683,3.019113c0.003082,1.661869 1.383712,3.016097 3.081764,3.010065l14.952721,-0.018097c1.701134,0 3.081764,-1.357244 3.075601,-3.016097zm-15.889577,-13.641805l13.821713,5.579779c0.385221,0.159853 0.782768,0.229223 1.174152,0.229223c1.211133,0 2.360632,-0.699734 2.850632,-1.863948c0.653334,-1.541225 -0.098616,-3.308658 -1.67648,-3.939022l-13.81555,-5.579779c-1.574782,-0.63338 -3.374532,0.096515 -4.024784,1.634724c-0.653334,1.541225 0.101698,3.29961 1.670316,3.939022zm19.085367,-4.276825c0.600944,0.582107 1.383712,0.877684 2.172644,0.877684s1.580945,-0.295577 2.184971,-0.889749c1.20497,-1.173262 1.198806,-3.085467 -0.012327,-4.264761l-10.582779,-10.327115c-1.201888,-1.176278 -3.158809,-1.170246 -4.357615,0.009048c-1.20497,1.176278 -1.198806,3.088483 0.006164,4.264761l10.588943,10.330131zm8.712148,-7.139101c0.493082,1.158181 1.639499,1.854899 2.844469,1.854899c0.394466,0 0.795095,-0.075402 1.183398,-0.232239c1.5717,-0.639413 2.320569,-2.406845 1.664153,-3.942038l-5.744409,-13.509097c-0.653334,-1.538209 -2.459248,-2.265089 -4.030948,-1.625676c-1.5717,0.642429 -2.314405,2.409861 -1.661071,3.945055l5.744409,13.509097z" fill-opacity="0" stroke-width="1.5" stroke="#a0a0a0" fill="#0fffff"/>
 </g>
</svg>