<?xml version="1.0" encoding="iso-8859-1"?>
<!-- Generator: Adobe Illustrator 19.0.0, SVG Export Plug-In . SVG Version: 6.00 Build 0)  -->
<svg version="1.1" id="Capa_1" xmlns="http://www.w3.org/2000/svg" xmlns:xlink="http://www.w3.org/1999/xlink" x="0px" y="0px"
	 viewBox="0 0 468 468" style="enable-background:new 0 0 468 468;" xml:space="preserve">
<path style="fill:#6FBBC6;" d="M218,380h32v64h-32V380z"/>
<path style="fill:#3B869E;" d="M218,380h32v32h-32V380z"/>
<circle style="fill:#EBEBEB;" cx="234" cy="196" r="188"/>
<g>
	<path style="fill:#6FBBC6;" d="M234,392c-108.248,0-196-87.752-196-196S125.752,0,234,0s196,87.752,196,196
		C429.877,304.197,342.197,391.877,234,392z M234,16C134.589,16,54,96.589,54,196s80.589,180,180,180s180-80.589,180-180
		C413.885,96.636,333.364,16.115,234,16z"/>
	<path style="fill:#6FBBC6;" d="M234,36h16c44.183,0,80,35.817,80,80s-35.817,80-80,80h-16l0,0V36L234,36z"/>
</g>
<g>
	<path style="fill:#3B869E;" d="M394,196v16c0,44.183-35.817,80-80,80s-80-35.817-80-80v-16l0,0H394L394,196z"/>
	<path style="fill:#3B869E;" d="M74,196v-16c0-44.183,35.817-80,80-80s80,35.817,80,80v16l0,0H74L74,196z"/>
</g>
<path style="fill:#6FBBC6;" d="M234,356h-16c-44.183,0-80-35.817-80-80s35.817-80,80-80h16l0,0V356L234,356z"/>
<circle style="fill:#8ACED8;" cx="234" cy="196" r="32"/>
<path style="fill:#6FBBC6;" d="M330,468H138v-16c0-8.837,7.163-16,16-16h160c8.837,0,16,7.163,16,16V468z"/>
<g>
</g>
<g>
</g>
<g>
</g>
<g>
</g>
<g>
</g>
<g>
</g>
<g>
</g>
<g>
</g>
<g>
</g>
<g>
</g>
<g>
</g>
<g>
</g>
<g>
</g>
<g>
</g>
<g>
</g>
</svg>
