<?xml version="1.0" encoding="iso-8859-1"?>
<!-- Generator: Adobe Illustrator 19.0.0, SVG Export Plug-In . SVG Version: 6.00 Build 0)  -->
<svg version="1.1" id="Layer_1" xmlns="http://www.w3.org/2000/svg" xmlns:xlink="http://www.w3.org/1999/xlink" x="0px" y="0px"
	 viewBox="0 0 512 512" style="enable-background:new 0 0 512 512;" xml:space="preserve">
<g>
	<path style="fill:#5C5F66;" d="M189.217,439.652c-9.217,0-16.696-7.473-16.696-16.696V130.935c0-9.223,7.479-16.696,16.696-16.696
		c9.217,0,16.696,7.473,16.696,16.696v292.021C205.913,432.179,198.435,439.652,189.217,439.652z"/>
	<path style="fill:#5C5F66;" d="M256,439.652c-9.217,0-16.696-7.473-16.696-16.696V89.043c0-9.223,7.479-16.696,16.696-16.696
		s16.696,7.473,16.696,16.696v333.913C272.696,432.179,265.217,439.652,256,439.652z"/>
</g>
<g>
	<path style="fill:#53565C;" d="M322.783,439.652c-9.217,0-16.696-7.473-16.696-16.696V130.935c0-9.223,7.479-16.696,16.696-16.696
		s16.696,7.473,16.696,16.696v292.021C339.478,432.179,332,439.652,322.783,439.652z"/>
	<path style="fill:#53565C;" d="M272.696,422.957V89.043c0-9.223-7.479-16.696-16.696-16.696v367.304
		C265.217,439.652,272.696,432.179,272.696,422.957z"/>
</g>
<path style="fill:#7F838C;" d="M395.13,439.652H116.87c-9.217,0-16.696-7.473-16.696-16.696s7.479-16.696,16.696-16.696H395.13
	c9.217,0,16.696,7.473,16.696,16.696S404.348,439.652,395.13,439.652z"/>
<path style="fill:#757982;" d="M395.13,406.261H256v33.391h139.13c9.217,0,16.696-7.473,16.696-16.696
	S404.348,406.261,395.13,406.261z"/>
<path style="fill:#7F838C;" d="M409.712,200.459c-4.453,8.014-14.693,10.908-22.706,6.456
	C350.72,186.657,301.078,172.522,256,172.522c-44.633,0-93.94,13.69-131.005,34.393c-8.014,4.452-18.253,1.67-22.706-6.456
	c-4.451-8.014-1.668-18.254,6.457-22.706c42.184-23.597,96.835-38.623,147.256-38.623c50.31,0,104.959,15.026,147.256,38.623
	C411.381,182.205,414.163,192.445,409.712,200.459z"/>
<path style="fill:#757982;" d="M409.712,200.459c-4.453,8.014-14.693,10.908-22.706,6.456
	C350.72,186.657,301.078,172.522,256,172.522V139.13c50.31,0,104.959,15.026,147.256,38.623
	C411.381,182.205,414.163,192.445,409.712,200.459z"/>
<path style="fill:#FFEACC;" d="M66.783,172.522C29.956,172.522,0,142.565,0,105.739s29.956-66.783,66.783-66.783
	s66.783,29.956,66.783,66.783S103.609,172.522,66.783,172.522z"/>
<path style="fill:#FFDBB2;" d="M133.565,105.739c0-36.826-29.956-66.783-66.783-66.783v133.565
	C103.609,172.522,133.565,142.565,133.565,105.739z"/>
<path style="fill:#A1A7B3;" d="M116.87,473.043H16.696C7.479,473.043,0,465.57,0,456.348V155.826
	c0-9.223,7.479-16.696,16.696-16.696H116.87c9.217,0,16.696,7.473,16.696,16.696v300.522
	C133.565,465.57,126.087,473.043,116.87,473.043z"/>
<path style="fill:#979CA7;" d="M116.87,139.13H66.783v333.913h50.087c9.217,0,16.696-7.473,16.696-16.696V155.826
	C133.565,146.603,126.087,139.13,116.87,139.13z"/>
<path style="fill:#FFEACC;" d="M445.217,172.522c-36.826,0-66.783-29.956-66.783-66.783s29.956-66.783,66.783-66.783
	S512,68.913,512,105.739S482.044,172.522,445.217,172.522z"/>
<path style="fill:#FFDBB2;" d="M512,105.739c0-36.826-29.956-66.783-66.783-66.783v133.565C482.044,172.522,512,142.565,512,105.739
	z"/>
<path style="fill:#A1A7B3;" d="M495.304,473.043H395.13c-9.217,0-16.696-7.473-16.696-16.696V155.826
	c0-9.223,7.479-16.696,16.696-16.696h100.174c9.217,0,16.696,7.473,16.696,16.696v300.522
	C512,465.57,504.521,473.043,495.304,473.043z"/>
<path style="fill:#979CA7;" d="M495.304,139.13h-50.087v333.913h50.087c9.217,0,16.696-7.473,16.696-16.696V155.826
	C512,146.603,504.521,139.13,495.304,139.13z"/>
<g>
</g>
<g>
</g>
<g>
</g>
<g>
</g>
<g>
</g>
<g>
</g>
<g>
</g>
<g>
</g>
<g>
</g>
<g>
</g>
<g>
</g>
<g>
</g>
<g>
</g>
<g>
</g>
<g>
</g>
</svg>
