<?xml version="1.0" encoding="iso-8859-1"?>
<!-- Generator: Adobe Illustrator 19.0.0, SVG Export Plug-In . SVG Version: 6.00 Build 0)  -->
<svg version="1.1" id="Capa_1" xmlns="http://www.w3.org/2000/svg" xmlns:xlink="http://www.w3.org/1999/xlink" x="0px" y="0px"
	 viewBox="0 0 512 512" style="enable-background:new 0 0 512 512;" xml:space="preserve">
<path style="fill:#DEECF1;" d="M256,0C115.3,0,0,115.3,0,256s115.3,256,256,256s256-115.3,256-256S396.7,0,256,0z"/>
<path style="fill:#C6E2E7;" d="M512,256c0,140.7-115.3,256-256,256V0C396.7,0,512,115.3,512,256z"/>
<path style="fill:#00ABE9;" d="M256,30C131.8,30,30,131.8,30,256s101.8,226,226,226s226-101.8,226-226S380.2,30,256,30z"/>
<path style="fill:#1A96E2;" d="M482,256c0,124.2-101.8,226-226,226V30C380.2,30,482,131.8,482,256z"/>
<path style="fill:#DEECF1;" d="M286,91H151v330h60V301h75c57.9,0,105-47.1,105-105S343.9,91,286,91z M286,241h-75v-90h75
	c24.901,0,45,20.099,45,45S310.901,241,286,241z"/>
<path style="fill:#C6E2E7;" d="M391,196c0,57.9-47.1,105-105,105h-30v-60h30c24.901,0,45-20.099,45-45s-20.099-45-45-45h-30V91h30
	C343.9,91,391,138.1,391,196z"/>
<g>
</g>
<g>
</g>
<g>
</g>
<g>
</g>
<g>
</g>
<g>
</g>
<g>
</g>
<g>
</g>
<g>
</g>
<g>
</g>
<g>
</g>
<g>
</g>
<g>
</g>
<g>
</g>
<g>
</g>
</svg>
